<svg id="Layer_1" data-name="Layer 1" xmlns="http://www.w3.org/2000/svg" viewBox="0 0 1523.81 422.06"><defs><style>.cls-1{fill:#fff;}</style></defs><path class="cls-1" d="M491.15,393.44q8,6.19,8,16.88a23,23,0,0,1-1.08,7.34,20.82,20.82,0,0,1-2.81,5.6,20,20,0,0,1-4.08,4.19,35.82,35.82,0,0,1-4.78,3.09,45.29,45.29,0,0,1,7.22,3.28,22.94,22.94,0,0,1,5.62,4.43,17.92,17.92,0,0,1,3.65,6.09,24,24,0,0,1,1.28,8.15,23,23,0,0,1-2.38,10.66,21.72,21.72,0,0,1-6.74,7.77,31.5,31.5,0,0,1-10.52,4.75,54.47,54.47,0,0,1-13.61,1.6H429.29v-90h40.3Q483.2,387.26,491.15,393.44Zm-12.34,28.84q4.6-3,4.61-9.37a10.13,10.13,0,0,0-4-8.6q-4-3-11.72-3H445v24.05h21.53Q474.19,425.32,478.81,422.28Zm5,37.82q4.62-3.15,4.62-9.32a10.38,10.38,0,0,0-4.56-9q-4.54-3.21-13.9-3.22H445v24.69h26.15Q479.2,463.25,483.82,460.1Z" transform="translate(-73.69 -91.65)"/><path class="cls-1" d="M639.27,450.14A45.37,45.37,0,0,1,629.49,465a46.9,46.9,0,0,1-33.94,13.82,48.15,48.15,0,0,1-19-3.66,44.72,44.72,0,0,1-24.44-24.76,48.42,48.42,0,0,1,0-36,45.26,45.26,0,0,1,9.78-14.85,46.79,46.79,0,0,1,33.94-13.82,48.15,48.15,0,0,1,19,3.66,45.07,45.07,0,0,1,14.79,10,45.58,45.58,0,0,1,9.65,14.78,48.45,48.45,0,0,1,0,36ZM623.9,420a31.57,31.57,0,0,0-6.3-10.22,30,30,0,0,0-9.71-6.94,29.39,29.39,0,0,0-12.34-2.57,29.69,29.69,0,0,0-12.28,2.5,29.18,29.18,0,0,0-9.58,6.82,31.3,31.3,0,0,0-6.24,10.16,35.32,35.32,0,0,0,0,24.81,31.51,31.51,0,0,0,6.3,10.23,30,30,0,0,0,9.71,6.94,31.1,31.1,0,0,0,24.62.06,29,29,0,0,0,9.58-6.81,31.3,31.3,0,0,0,6.24-10.16,35.35,35.35,0,0,0,0-24.82Z" transform="translate(-73.69 -91.65)"/><path class="cls-1" d="M755.12,387.26h15.69v90H757.59l-49.53-64v64H692.37v-90H707l48.12,62.23Z" transform="translate(-73.69 -91.65)"/><path class="cls-1" d="M909.42,477.27H898.49L888,453.48H839l-10.68,23.79H817.87l41-90.65h9.51Zm-45.9-78.7-20.58,45.91h41Z" transform="translate(-73.69 -91.65)"/><path class="cls-1" d="M1008,388.87a29,29,0,0,1,9.24,4.5,19.47,19.47,0,0,1,5.9,7.07,20.84,20.84,0,0,1,2.06,9.32,22.89,22.89,0,0,1-1.22,7.84,20.56,20.56,0,0,1-3.27,5.92,21.51,21.51,0,0,1-4.56,4.31,29.47,29.47,0,0,1-5.19,2.89,40.23,40.23,0,0,1,7.51,3,25.15,25.15,0,0,1,6.09,4.44,19.32,19.32,0,0,1,4.11,6.17,20.69,20.69,0,0,1,1.54,8.23,23,23,0,0,1-2.31,10.42,21.27,21.27,0,0,1-6.61,7.77,31.53,31.53,0,0,1-10.33,4.83,50.09,50.09,0,0,1-13.35,1.67H957.64v-90h38.25A42.26,42.26,0,0,1,1008,388.87Zm1.27,34.38q5.76-4.14,5.77-12.14a13,13,0,0,0-5.13-10.85q-5.13-4-14.75-4H967.8v31.12h26.54Q1003.45,427.38,1009.22,423.25ZM1014.1,464a13.93,13.93,0,0,0,5.9-12,13.15,13.15,0,0,0-6-11.56q-6-4.06-17.82-4.06H967.8v31.89h30.14Q1008.2,468.27,1014.1,464Z" transform="translate(-73.69 -91.65)"/><path class="cls-1" d="M1146,396.52h-54.9v30.73h49.12v9.26h-49.12V468h55.55v9.26H1081v-90H1146Z" transform="translate(-73.69 -91.65)"/><path class="cls-1" d="M1259.56,477.27l-26.11-35h-25.71v35h-10.16v-90h38.7a43.58,43.58,0,0,1,13.44,1.93,30.29,30.29,0,0,1,10.22,5.47,24.35,24.35,0,0,1,6.56,8.49,25.71,25.71,0,0,1,2.31,11,26.71,26.71,0,0,1-1.8,10.1,23,23,0,0,1-5.08,7.71,28.5,28.5,0,0,1-7.77,5.47,36.19,36.19,0,0,1-9.78,3.09L1272,477.27Zm-7-75.92q-6.06-4.69-17-4.7h-27.84v36.64h27.71a31.83,31.83,0,0,0,9.28-1.29,22.44,22.44,0,0,0,7.35-3.68,16.89,16.89,0,0,0,4.84-5.87,17.35,17.35,0,0,0,1.74-7.87Q1258.66,406.06,1252.6,401.35Z" transform="translate(-73.69 -91.65)"/><path class="cls-1" d="M1354.07,477.27h-10.16V396.65h-30.22v-9.39h70.59v9.39h-30.21Z" transform="translate(-73.69 -91.65)"/><path class="cls-1" d="M336.44,139.44c0-8.05-.5-14.32-10.73-16C263.32,113.06,201,102.27,138.64,91.7c-1.44-.24-3,.39-6,.82V513.71c34.11-5.74,66.48-11.15,98.82-16.65,30.39-5.17,60.7-10.82,91.16-15.47,10.54-1.61,13.92-6,13.89-16.63Q336,302.2,336.44,139.44Z" transform="translate(-73.69 -91.65)"/><path class="cls-1" d="M73.69,477.27H117V458.14l-22-2.63V148.78L117,146.57v-19.7H73.69Z" transform="translate(-73.69 -91.65)"/><circle class="cls-1" cx="84.06" cy="210.04" r="8.42"/><path class="cls-1" d="M448.85,193.43h32.82L534,328.13H497.47l-9-23.88H441.13l-8.78,23.88H396.54Zm29.84,82.16-13.69-38-13.87,38Z" transform="translate(-73.69 -91.65)"/><path class="cls-1" d="M554.69,194.38H617.6q11.56,0,19.8,3.06a34.47,34.47,0,0,1,13.67,9,30,30,0,0,1,5.78,9.36A33.32,33.32,0,0,1,659,228v.38q0,11.66-5.33,18.82a35,35,0,0,1-13.53,11q11.26,4,17.87,11.56t6.6,21.11v.39q0,17.39-12.2,27.13t-34.31,9.74H554.69Zm54.59,53.31c5.27,0,9.27-.95,12-2.86s4.12-4.84,4.12-8.79v-.39a10.09,10.09,0,0,0-3.86-8.5q-3.87-3-11.59-3H587.87v23.5Zm4.92,50.64q7.89,0,12.11-3.16t4.21-9.07v-.39a10.67,10.67,0,0,0-4-8.78q-4-3.26-12.63-3.25h-26v24.65Z" transform="translate(-73.69 -91.65)"/><path class="cls-1" d="M689,194.38h98.65v31.53H722.5v20.25h59V275.4h-59v21.21h66v31.52H689Z" transform="translate(-73.69 -91.65)"/><path class="cls-1" d="M814.82,194.38h58.11q14.21,0,24,3.82a40.87,40.87,0,0,1,16,10.7q10.88,11.47,10.88,31.15v.38q0,15.48-6.85,25.6a43.85,43.85,0,0,1-18.43,15.48l29.32,46.62H888.55l-24.75-40.5H848.88v40.5H814.82Zm56.53,64.2q8.77,0,13.51-4.3t4.74-11.56v-.38q0-8-4.91-11.94t-13.52-3.92H848.88v32.1Z" transform="translate(-73.69 -91.65)"/><path class="cls-1" d="M979.82,226.86H943V194.38h107.78v32.48h-36.87V328.13h-34Z" transform="translate(-73.69 -91.65)"/><path class="cls-1" d="M1129.72,330.62A72.69,72.69,0,0,1,1106,327a45.22,45.22,0,0,1-17.91-11.18,50,50,0,0,1-11.32-19.11q-3.94-11.55-4-27.23V194.38h34.75v74.33q0,14.52,6.1,21.49t16.37,7q10.28,0,16.37-6.69t6.1-20.83V194.38h34.75v74.14q0,16.25-4.12,28a50.92,50.92,0,0,1-11.59,19.3A45.89,45.89,0,0,1,1153.51,327,73.57,73.57,0,0,1,1129.72,330.62Z" transform="translate(-73.69 -91.65)"/><path class="cls-1" d="M1216.26,194.38h58.1q14.21,0,24,3.82a40.87,40.87,0,0,1,16,10.7q10.88,11.47,10.88,31.15v.38q0,15.48-6.85,25.6A43.85,43.85,0,0,1,1300,281.51l29.32,46.62H1290l-24.75-40.5h-14.92v40.5h-34Zm56.52,64.2q8.78,0,13.51-4.3t4.74-11.56v-.38q0-8-4.91-11.94t-13.52-3.92h-22.29v32.1Z" transform="translate(-73.69 -91.65)"/><path class="cls-1" d="M1393.72,193.43h32.82l52.31,134.7h-36.51l-9-23.88H1386l-8.77,23.88h-35.81Zm29.84,82.16-13.7-38-13.86,38Z" transform="translate(-73.69 -91.65)"/><path class="cls-1" d="M1547.83,330.43a88.2,88.2,0,0,1-31.33-5.58,74.73,74.73,0,0,1-26.24-16.73l19-24.7q18.43,16.05,39.85,16.05,6.84,0,10.44-2.38a7.66,7.66,0,0,0,3.6-6.77v-.38a7.63,7.63,0,0,0-.88-3.72,9.31,9.31,0,0,0-3.24-3.15,32.26,32.26,0,0,0-6.32-3,100.19,100.19,0,0,0-10.27-2.95q-9.84-2.49-18.26-5.44a53.93,53.93,0,0,1-14.65-7.63,33.48,33.48,0,0,1-9.83-11.63q-3.6-7-3.6-17.27v-.38a44.38,44.38,0,0,1,3.24-17.16,38,38,0,0,1,9.48-13.54,43.7,43.7,0,0,1,15-8.87,58.46,58.46,0,0,1,19.84-3.15,81.85,81.85,0,0,1,28.17,4.52A69.6,69.6,0,0,1,1594.17,210l-17,26.26a67.16,67.16,0,0,0-17.29-9.84,48.36,48.36,0,0,0-17.11-3.35q-6.15,0-9.22,2.48a7.58,7.58,0,0,0-3.07,6.11V232a8,8,0,0,0,1,4,8.93,8.93,0,0,0,3.33,3.15,34.64,34.64,0,0,0,6.5,2.86q4.13,1.44,10.44,3a141.17,141.17,0,0,1,19,5.81,55.68,55.68,0,0,1,14.48,8.11,31.9,31.9,0,0,1,9.12,11.54,37.81,37.81,0,0,1,3.16,16.12v.38a44.38,44.38,0,0,1-3.59,18.31,38.92,38.92,0,0,1-10.1,13.64,44.48,44.48,0,0,1-15.62,8.58A65.9,65.9,0,0,1,1547.83,330.43Z" transform="translate(-73.69 -91.65)"/><path class="cls-1" d="M462.09,151.4a25.47,25.47,0,0,1-4.39,2.7,22,22,0,0,1-5.14,1.72,30.3,30.3,0,0,1-6.18.59,24.5,24.5,0,0,1-9.81-1.93,23.91,23.91,0,0,1-12.91-13.19,25.54,25.54,0,0,1-1.87-9.81,25.92,25.92,0,0,1,1.83-9.74,24.4,24.4,0,0,1,5.15-8,24.1,24.1,0,0,1,7.87-5.38,25,25,0,0,1,10.08-2,30.48,30.48,0,0,1,6,.55,24.58,24.58,0,0,1,5,1.56A23.11,23.11,0,0,1,462,110.9a33.9,33.9,0,0,1,3.66,3l-5.46,6.28a27.38,27.38,0,0,0-6.15-4.35,16.05,16.05,0,0,0-7.39-1.66,15.13,15.13,0,0,0-6.39,1.35,16,16,0,0,0-5.07,3.66,16.52,16.52,0,0,0-3.32,5.42,18.87,18.87,0,0,0-1.17,6.7,19.12,19.12,0,0,0,1.17,6.73,16.74,16.74,0,0,0,3.32,5.49,15.65,15.65,0,0,0,5.07,3.7,15.13,15.13,0,0,0,6.39,1.35,15.94,15.94,0,0,0,7.6-1.7,29.24,29.24,0,0,0,6.28-4.59l5.46,5.53A30.68,30.68,0,0,1,462.09,151.4Z" transform="translate(-73.69 -91.65)"/><path class="cls-1" d="M528.08,155.58h-9l-4.9-11.67H491.34l-5,11.67h-8.7l21.27-48.69h7.88ZM502.73,117l-8.29,19.34h16.65Z" transform="translate(-73.69 -91.65)"/><path class="cls-1" d="M550.11,122.36a5.05,5.05,0,0,0,1.77,1.94,13.75,13.75,0,0,0,3.53,1.65q2.25.76,5.71,1.59a55.75,55.75,0,0,1,6.75,2.14,17,17,0,0,1,4.88,2.87,11.35,11.35,0,0,1,2.94,3.94,12.79,12.79,0,0,1,1,5.28,14.24,14.24,0,0,1-1.27,6.15,12.92,12.92,0,0,1-3.53,4.55,15.42,15.42,0,0,1-5.43,2.84,24,24,0,0,1-7,1,30.34,30.34,0,0,1-10.7-1.9,29.13,29.13,0,0,1-9.46-5.83l5.11-6.08a29.41,29.41,0,0,0,7.11,4.66,19.6,19.6,0,0,0,8.15,1.62,10.57,10.57,0,0,0,6.25-1.65,5.25,5.25,0,0,0,2.31-4.49,5.83,5.83,0,0,0-.45-2.35,4.71,4.71,0,0,0-1.66-1.9,14.06,14.06,0,0,0-3.32-1.62,55,55,0,0,0-5.51-1.59,60.35,60.35,0,0,1-6.89-2,17.57,17.57,0,0,1-5.05-2.77,11,11,0,0,1-3.12-4,13.86,13.86,0,0,1-1.07-5.73,13.29,13.29,0,0,1,1.23-5.77,13.49,13.49,0,0,1,3.39-4.46,15.16,15.16,0,0,1,5.19-2.86,21,21,0,0,1,6.63-1,27.59,27.59,0,0,1,9.56,1.55,28.88,28.88,0,0,1,8,4.52l-4.56,6.43a30.14,30.14,0,0,0-6.56-3.7,17.8,17.8,0,0,0-6.56-1.28,8.91,8.91,0,0,0-5.8,1.7,5.14,5.14,0,0,0-2.07,4.11A5.87,5.87,0,0,0,550.11,122.36Z" transform="translate(-73.69 -91.65)"/><path class="cls-1" d="M638.85,155.58h-9L625,143.91H602.11l-5,11.67h-8.7l21.27-48.69h7.87ZM613.51,117l-8.29,19.34h16.65Z" transform="translate(-73.69 -91.65)"/><path class="cls-1" d="M723.52,140.91a22.42,22.42,0,0,1-5.28,7.7,25.13,25.13,0,0,1-8.15,5.11,28.15,28.15,0,0,1-10.39,1.86h-18V107.24h18a28.56,28.56,0,0,1,10.39,1.83,24.54,24.54,0,0,1,8.15,5.07,22.49,22.49,0,0,1,5.28,7.67,24.15,24.15,0,0,1,1.87,9.53A24.41,24.41,0,0,1,723.52,140.91Zm-8.25-16a15.78,15.78,0,0,0-3.39-5.24,15.3,15.3,0,0,0-5.3-3.47,18.55,18.55,0,0,0-6.93-1.25H690.1v33h9.55a19,19,0,0,0,6.93-1.22,15.15,15.15,0,0,0,5.3-3.4,15.41,15.41,0,0,0,3.39-5.2,18.71,18.71,0,0,0,0-13.24Z" transform="translate(-73.69 -91.65)"/><path class="cls-1" d="M778.36,114.9H751v12.43h24.24V135H751v12.92h27.7v7.66H742.59V107.24h35.77Z" transform="translate(-73.69 -91.65)"/></svg>